Coordinates
version=1
nRows=19
nColumns=63
inDegrees=yes

Units are S.I. units (second, meters, Newtons, ...)
If the header above contains a line with 'inDegrees', this indicates whether rotational values are in degrees (yes) or radians (no).

endheader
time	pelvis_tilt	pelvis_list	pelvis_rotation	pelvis_tx	pelvis_ty	pelvis_tz	hip_flexion_r	hip_adduction_r	hip_rotation_r	knee_angle_r	knee_angle_r_beta	ankle_angle_r	subtalar_angle_r	mtp_angle_r	hip_flexion_l	hip_adduction_l	hip_rotation_l	knee_angle_l	knee_angle_l_beta	ankle_angle_l	subtalar_angle_l	mtp_angle_l	L5_S1_Flex_Ext	L5_S1_Lat_Bending	L5_S1_axial_rotation	L4_L5_Flex_Ext	L4_L5_Lat_Bending	L4_L5_axial_rotation	L3_L4_Flex_Ext	L3_L4_Lat_Bending	L3_L4_axial_rotation	L2_L3_Flex_Ext	L2_L3_Lat_Bending	L2_L3_axial_rotation	L1_L2_Flex_Ext	L1_L2_Lat_Bending	L1_L2_axial_rotation	L1_T12_Flex_Ext	L1_T12_Lat_Bending	L1_T12_axial_rotation	Abs_r3	Abs_r2	Abs_r1	Abs_t1	Abs_t2	neck_flexion	neck_bending	neck_rotation	arm_flex_r	arm_add_r	arm_rot_r	elbow_flex_r	pro_sup_r	wrist_flex_r	wrist_dev_r	arm_flex_l	arm_add_l	arm_rot_l	elbow_flex_l	pro_sup_l	wrist_flex_l	wrist_dev_l
18.508475	3.947961	-5.169560	77.938700	0.212184	0.783279	0.776144	3.666683	5.001954	8.857069	0.918122	0.016024	16.305040	-16.342249	0.000000	2.587926	-6.225176	21.569281	1.524813	0.026613	19.688502	-17.332774	0.000000	-0.029075	-0.349986	-1.919050	-0.053995	-0.465481	-2.038990	-0.047767	-0.850956	-2.038990	-0.033230	-0.850956	-1.679168	-0.026999	-0.713691	-1.559228	-0.016613	-0.542128	-1.439287	-0.207679	-3.959110	-10.673178	0.000000	0.000000	19.535031	3.397069	-30.741306	-2.708631	-44.336050	-71.210302	144.682619	67.907949	-21.216801	12.137123	33.906714	8.061711	164.642510	-4.771081	-2.415474	2.605318	-20.467177
18.525424	4.634019	-5.109762	77.460836	0.208837	0.783797	0.774683	3.408361	5.439128	9.011213	0.888162	0.015501	16.183702	-15.960664	0.000000	2.277321	-6.613388	20.766613	1.652847	0.028848	20.363225	-17.377720	0.000000	-0.036835	-0.236848	-1.695857	-0.068407	-0.315007	-1.801848	-0.060517	-0.575871	-1.801848	-0.042099	-0.575871	-1.483875	-0.034205	-0.482979	-1.377884	-0.021048	-0.366877	-1.271893	-0.263112	-2.679267	-9.431850	0.000000	0.000000	18.320513	2.420807	-31.307277	-4.778919	-45.141818	-73.250271	144.821091	71.651048	-21.619241	13.555968	36.419311	11.994599	167.379186	-7.246088	-3.868232	10.942850	-22.858043
18.542373	5.176256	-5.003830	76.944751	0.206242	0.784432	0.772971	3.103973	5.758038	9.242812	0.852851	0.014885	16.081960	-15.637211	0.000000	1.903159	-6.894097	20.043883	1.748453	0.030516	20.892200	-17.428579	0.000000	-0.042710	-0.148512	-1.512099	-0.079317	-0.197521	-1.606605	-0.070169	-0.361092	-1.606605	-0.048814	-0.361092	-1.323086	-0.039661	-0.302846	-1.228580	-0.024405	-0.230045	-1.134074	-0.305075	-1.679997	-8.409839	0.000000	0.000000	17.057117	1.496696	-32.096552	-6.034772	-45.599974	-74.548971	144.945990	75.547487	-21.765492	15.214215	38.321230	14.989762	166.670691	-7.116231	-3.064667	18.291860	-23.760380
18.559322	5.611175	-4.861041	76.433067	0.204314	0.785155	0.771092	2.758792	5.996066	9.516845	0.818404	0.014284	15.977093	-15.386671	0.000000	1.481093	-7.106212	19.446493	1.814692	0.031672	21.295252	-17.488278	0.000000	-0.049112	-0.080341	-1.365358	-0.091205	-0.106854	-1.450693	-0.080685	-0.195342	-1.450693	-0.056130	-0.195342	-1.194688	-0.045605	-0.163832	-1.109353	-0.028062	-0.124449	-1.024018	-0.350799	-0.908836	-7.593710	0.000000	0.000000	15.829129	0.613643	-33.089081	-6.470828	-45.787606	-75.163743	145.020882	79.024657	-21.631909	16.956242	39.705443	17.157891	162.838700	-4.639217	-0.243876	24.537780	-23.364955
18.576271	5.934443	-4.691895	75.933362	0.203068	0.785959	0.769185	2.395125	6.155297	9.820190	0.789152	0.013773	15.879614	-15.198418	0.000000	1.031375	-7.253599	18.989414	1.846208	0.032222	21.547021	-17.550234	0.000000	-0.054593	-0.033618	-1.254502	-0.101385	-0.044713	-1.332909	-0.089691	-0.081740	-1.332909	-0.062395	-0.081740	-1.097689	-0.050695	-0.068555	-1.019283	-0.031195	-0.052075	-0.940877	-0.389955	-0.380299	-6.977165	0.000000	0.000000	14.675203	-0.163897	-34.211813	-6.092847	-45.719846	-75.094304	145.016101	82.075344	-21.152437	18.692863	40.642923	18.574973	156.480667	-0.048233	3.732285	29.375052	-21.922376
18.593220	6.152447	-4.503307	75.461900	0.202469	0.786848	0.767363	2.032964	6.244718	10.130990	0.770228	0.013443	15.805789	-15.047296	0.000000	0.570984	-7.344288	18.656583	1.842794	0.032163	21.637126	-17.607322	0.000000	-0.059181	-0.008199	-1.173745	-0.109905	-0.010905	-1.247104	-0.097228	-0.019935	-1.247104	-0.067638	-0.019935	-1.027027	-0.054955	-0.016719	-0.953668	-0.033816	-0.012700	-0.880309	-0.422722	-0.092748	-6.528016	0.000000	0.000000	13.642020	-0.805995	-35.395527	-5.038822	-45.444609	-74.419311	144.926291	84.614512	-20.337125	20.291598	41.234487	19.347368	148.236476	6.351286	8.351774	32.695756	-19.672615
18.610169	6.282645	-4.316417	75.047126	0.202451	0.787800	0.765720	1.701865	6.288085	10.419535	0.759491	0.013256	15.770477	-14.928436	0.000000	0.134958	-7.399182	18.467680	1.814021	0.031661	21.565620	-17.667335	0.000000	-0.061611	-0.001339	-1.114618	-0.114418	-0.001781	-1.184282	-0.101221	-0.003256	-1.184282	-0.070415	-0.003256	-0.975291	-0.057212	-0.002731	-0.905627	-0.035205	-0.002075	-0.835963	-0.440083	-0.015151	-6.199171	0.000000	0.000000	12.736885	-1.340492	-36.606378	-3.540666	-45.016588	-73.334250	144.791098	86.642311	-19.266760	21.727691	41.575528	19.603166	138.582922	14.239782	13.273223	34.481464	-16.864052
18.627119	6.338965	-4.132906	74.730191	0.202896	0.788808	0.764355	1.409888	6.296967	10.660250	0.750596	0.013100	15.786119	-14.851848	0.000000	-0.257865	-7.428009	18.432202	1.770162	0.030895	21.348934	-17.723154	0.000000	-0.064791	-0.010882	-1.079388	-0.120324	-0.014473	-1.146849	-0.106446	-0.026459	-1.146849	-0.074050	-0.026459	-0.944464	-0.060165	-0.022191	-0.877003	-0.037022	-0.016856	-0.809541	-0.462799	-0.123101	-6.003231	0.000000	0.000000	12.040158	-1.736235	-37.722607	-1.776832	-44.463100	-71.965286	144.641827	88.097895	-18.010736	22.946627	41.737391	19.464473	127.793008	23.286573	18.306685	34.707919	-13.639628
18.644068	6.323707	-3.981448	74.507551	0.203786	0.789831	0.763370	1.198738	6.281301	10.830435	0.744604	0.012996	15.860718	-14.768650	0.000000	-0.563589	-7.435309	18.462257	1.725614	0.030118	21.026601	-17.720887	0.000000	-0.066939	-0.036604	-1.047649	-0.124312	-0.048683	-1.113128	-0.109974	-0.088999	-1.113128	-0.076504	-0.088999	-0.916693	-0.062159	-0.074643	-0.851215	-0.038249	-0.056700	-0.785737	-0.478138	-0.414071	-5.826712	0.000000	0.000000	11.597576	-1.940032	-38.789737	-0.118746	-43.793091	-70.670787	144.536533	88.917716	-16.682178	23.828428	41.858822	19.059864	116.548629	33.128063	22.726422	33.593808	-10.323748
18.661017	6.242515	-3.864651	74.376752	0.205045	0.790846	0.762755	1.066777	6.242658	10.985032	0.731492	0.012767	15.982420	-14.728651	0.000000	-0.785114	-7.421743	18.576130	1.669550	0.029139	20.612643	-17.723020	0.000000	-0.067670	-0.075903	-1.026980	-0.125669	-0.100951	-1.091166	-0.111174	-0.184550	-1.091166	-0.077340	-0.184550	-0.898607	-0.062838	-0.154781	-0.834421	-0.038666	-0.117573	-0.770235	-0.483357	-0.858626	-5.711754	0.000000	0.000000	11.381873	-2.023646	-39.769001	1.329197	-43.046411	-69.448745	144.515110	89.191518	-15.405280	24.491411	41.904870	18.499539	104.857991	43.437876	26.759417	31.044286	-6.866804
18.677966	6.111325	-3.792873	74.336132	0.206581	0.791825	0.762528	1.023379	6.197940	11.143171	0.709948	0.012391	16.119509	-14.806588	0.000000	-0.902253	-7.396133	18.692274	1.625052	0.028363	20.151865	-17.676228	0.000000	-0.066689	-0.125577	-1.017605	-0.123848	-0.167017	-1.081205	-0.109563	-0.305328	-1.081205	-0.076219	-0.305328	-0.890404	-0.061927	-0.256076	-0.826804	-0.038106	-0.194519	-0.763204	-0.476352	-1.420551	-5.659613	0.000000	0.000000	11.441302	-1.928485	-40.593609	2.451109	-42.266292	-68.411388	144.587714	89.103750	-14.200254	25.034793	41.958841	17.862362	93.081488	53.842891	29.996154	27.264761	-3.642173
18.694915	5.967291	-3.771070	74.403869	0.208213	0.792734	0.762647	1.069580	6.173626	11.161782	0.694171	0.012116	16.305411	-14.822248	0.000000	-0.908148	-7.384513	18.823714	1.603030	0.027978	19.682727	-17.602179	0.000000	-0.064541	-0.178069	-1.037076	-0.119860	-0.236832	-1.101894	-0.106035	-0.432958	-1.101894	-0.073764	-0.432958	-0.907442	-0.059933	-0.363119	-0.842624	-0.036879	-0.275829	-0.777807	-0.461013	-2.014355	-5.767907	0.000000	0.000000	11.790516	-1.645817	-41.110573	3.338388	-41.547850	-67.404827	144.695794	88.526686	-12.976643	25.361096	42.074122	17.198287	81.634782	64.007297	32.303514	22.306573	-0.925989
18.711864	5.798891	-3.809397	74.550633	0.209891	0.793564	0.763071	1.211725	6.156871	11.029513	0.684814	0.011952	16.503535	-14.770132	0.000000	-0.801345	-7.371922	18.928924	1.596140	0.027858	19.201407	-17.493188	0.000000	-0.059681	-0.233679	-1.076702	-0.110834	-0.310793	-1.143996	-0.098051	-0.568167	-1.143996	-0.068210	-0.568167	-0.942114	-0.055420	-0.476518	-0.874820	-0.034102	-0.361969	-0.807526	-0.426298	-2.643424	-5.988292	0.000000	0.000000	12.409981	-1.199296	-41.434800	3.990187	-40.892340	-66.527891	144.920832	88.539616	-11.921512	26.048457	42.281407	16.586587	70.941728	73.615669	33.580439	16.276718	1.273817
18.728814	5.653342	-3.907739	74.788207	0.211435	0.794286	0.763734	1.433724	6.184022	10.731906	0.686537	0.011982	16.669328	-14.684115	0.000000	-0.581980	-7.391264	19.015597	1.625209	0.028365	18.750010	-17.367171	0.000000	-0.054001	-0.284149	-1.144197	-0.100284	-0.377918	-1.215710	-0.088717	-0.690880	-1.215710	-0.061717	-0.690880	-1.001173	-0.050145	-0.579437	-0.929660	-0.030856	-0.440147	-0.858148	-0.385720	-3.214350	-6.363682	0.000000	0.000000	13.288509	-0.586308	-41.445910	4.461558	-40.376152	-65.673630	145.177316	88.453771	-10.891388	26.714372	42.638575	16.088093	61.447800	82.355816	33.842523	9.226288	2.637181
18.745763	5.528802	-4.066062	75.070778	0.212779	0.794872	0.764581	1.731332	6.244182	10.281330	0.707577	0.012350	16.810252	-14.515354	0.000000	-0.266111	-7.433846	19.051960	1.683741	0.029387	18.351712	-17.204789	0.000000	-0.047036	-0.328309	-1.215180	-0.087351	-0.436651	-1.291129	-0.077276	-0.798250	-1.291129	-0.053758	-0.798250	-1.063282	-0.043678	-0.669487	-0.987334	-0.026877	-0.508550	-0.911385	-0.335976	-3.713896	-6.758466	0.000000	0.000000	14.349969	0.088774	-41.270235	4.574769	-40.001989	-65.070530	145.503321	88.634530	-10.004271	27.482446	43.202170	15.813597	53.730408	89.940803	33.139223	1.458928	3.170049
18.762712	5.420809	-4.273443	75.383612	0.213830	0.795300	0.765582	2.089582	6.321255	9.665259	0.747738	0.013050	16.922347	-14.240597	0.000000	0.130656	-7.482910	19.035507	1.771928	0.030926	17.984366	-17.033560	0.000000	-0.040030	-0.365736	-1.274956	-0.074340	-0.486429	-1.354641	-0.065765	-0.889250	-1.354641	-0.045750	-0.889250	-1.115587	-0.037172	-0.745809	-1.035902	-0.022873	-0.566525	-0.956217	-0.285930	-4.137277	-7.090923	0.000000	0.000000	15.516977	0.713776	-40.990764	4.243624	-39.754415	-64.858087	145.903160	88.932102	-9.276027	28.193217	44.053902	15.831551	47.880314	96.109589	31.103572	-5.798653	2.681811
18.779661	5.326993	-4.507159	75.703761	0.214646	0.795567	0.766676	2.478011	6.405560	8.949764	0.809294	0.014125	16.989217	-13.884606	0.000000	0.572078	-7.531324	18.963897	1.887541	0.032944	17.662697	-16.859104	0.000000	-0.035308	-0.398652	-1.318152	-0.065570	-0.530208	-1.400537	-0.058007	-0.969283	-1.400537	-0.040353	-0.969283	-1.153383	-0.032787	-0.812932	-1.070999	-0.020175	-0.617513	-0.988614	-0.252198	-4.509635	-7.331166	0.000000	0.000000	16.694493	1.274132	-40.699660	3.446209	-39.590402	-65.032625	146.361119	89.070230	-8.814841	28.637245	45.207176	16.162553	43.833120	100.581601	28.058387	-11.245129	1.334229
18.796610	5.256222	-4.752748	76.003802	0.215199	0.795690	0.767801	2.873634	6.497570	8.170143	0.888689	0.015511	16.996229	-13.467354	0.000000	1.028566	-7.580733	18.827646	2.026908	0.035376	17.410500	-16.677053	0.000000	-0.032954	-0.425860	-1.339735	-0.061199	-0.566394	-1.423468	-0.054140	-1.035437	-1.423468	-0.037663	-1.035437	-1.172268	-0.030601	-0.868415	-1.088535	-0.018830	-0.659658	-1.004801	-0.235388	-4.817419	-7.451203	0.000000	0.000000	17.777819	1.717999	-40.412152	2.275547	-39.487930	-65.526281	146.855436	88.928174	-8.667267	28.666558	46.618233	16.858137	41.844015	103.100243	23.971865	-14.274367	-0.753292
18.813559	5.277464	-4.982357	76.257194	0.215242	0.795773	0.768881	3.226532	6.639482	7.374605	0.984811	0.017188	16.883069	-12.994070	0.000000	1.442131	-7.676622	18.612451	2.185460	0.038143	17.231818	-16.507715	0.000000	-0.034606	-0.438235	-1.316481	-0.064267	-0.582853	-1.398762	-0.056854	-1.065526	-1.398762	-0.039551	-1.065526	-1.151921	-0.032135	-0.893650	-1.069641	-0.019774	-0.678827	-0.987361	-0.247187	-4.957407	-7.321875	0.000000	0.000000	18.599382	1.976264	-40.212579	0.702792	-39.475903	-66.457777	147.325112	88.469599	-8.860606	28.208346	48.237112	18.098051	42.285786	103.395728	18.949297	-15.398556	-3.443975
